<?xml version="1.0" encoding="utf-8"?>
<!-- Generator: Adobe Illustrator 23.1.0, SVG Export Plug-In . SVG Version: 6.00 Build 0)  -->
<svg version="1.1" xmlns="http://www.w3.org/2000/svg" xmlns:xlink="http://www.w3.org/1999/xlink" x="0px" y="0px"
	 viewBox="0 0 1080 1080" style="enable-background:new 0 0 1080 1080;" xml:space="preserve">
<style type="text/css">
	.st0{fill:#140021;}
	.st1{fill:#FFFFFF;}
	.st2{display:none;}
	.st3{display:inline;fill:#FFFFFF;}
</style>
<g id="Layer_5">
	<rect y="-0.23" class="st0" width="1080" height="1080"/>
</g>
<g id="Tag_x5F_Line">
	<path class="st1" d="M819.31,638.37c0-0.69-0.15-1.29-0.46-1.78c-0.31-0.51-0.73-0.89-1.26-1.14c-0.52-0.27-1.1-0.4-1.74-0.4
		c-0.92,0-1.71,0.29-2.36,0.88c-0.64,0.59-1.01,1.4-1.1,2.44H819.31z M821.2,638.75c0,0.35-0.02,0.71-0.06,1.1h-8.77
		c0.07,1.08,0.43,1.93,1.1,2.54c0.68,0.6,1.5,0.9,2.46,0.9c0.79,0,1.44-0.18,1.96-0.54c0.53-0.37,0.91-0.87,1.12-1.48h1.96
		c-0.29,1.05-0.88,1.92-1.76,2.58c-0.88,0.65-1.98,0.98-3.28,0.98c-1.04,0-1.98-0.23-2.8-0.7c-0.81-0.47-1.45-1.13-1.92-1.98
		c-0.47-0.87-0.7-1.87-0.7-3c0-1.13,0.23-2.13,0.68-2.98s1.09-1.51,1.9-1.96c0.83-0.47,1.78-0.7,2.84-0.7
		c1.04,0,1.96,0.23,2.76,0.68c0.8,0.45,1.41,1.08,1.84,1.88C820.98,636.86,821.2,637.75,821.2,638.75z M792.34,639.15
		c0-1.13,0.23-2.12,0.68-2.96c0.45-0.85,1.08-1.51,1.88-1.98c0.81-0.47,1.74-0.7,2.78-0.7c1.35,0,2.46,0.33,3.32,0.98
		c0.88,0.65,1.46,1.56,1.74,2.72h-1.96c-0.19-0.67-0.55-1.19-1.1-1.58c-0.53-0.39-1.2-0.58-2-0.58c-1.04,0-1.88,0.36-2.52,1.08
		c-0.64,0.71-0.96,1.72-0.96,3.02c0,1.32,0.32,2.34,0.96,3.06c0.64,0.72,1.48,1.08,2.52,1.08c0.8,0,1.47-0.19,2-0.56
		c0.53-0.37,0.9-0.91,1.1-1.6h1.96c-0.29,1.12-0.88,2.02-1.76,2.7c-0.88,0.67-1.98,1-3.3,1c-1.04,0-1.97-0.23-2.78-0.7
		c-0.8-0.47-1.43-1.13-1.88-1.98C792.56,641.3,792.34,640.3,792.34,639.15z M779.55,633.49c1.33,0,2.42,0.41,3.24,1.22
		c0.83,0.8,1.24,1.96,1.24,3.48v6.47h-1.8v-6.21c0-1.09-0.27-1.93-0.82-2.5c-0.55-0.59-1.29-0.88-2.24-0.88
		c-0.96,0-1.73,0.3-2.3,0.9c-0.56,0.6-0.84,1.47-0.84,2.62v6.07h-1.82v-10.97h1.82v1.56c0.36-0.56,0.85-0.99,1.46-1.3
		C778.12,633.64,778.8,633.49,779.55,633.49z M763.91,638.37c0-0.69-0.15-1.29-0.46-1.78c-0.31-0.51-0.73-0.89-1.26-1.14
		c-0.52-0.27-1.1-0.4-1.74-0.4c-0.92,0-1.71,0.29-2.36,0.88c-0.64,0.59-1.01,1.4-1.1,2.44H763.91z M765.8,638.75
		c0,0.35-0.02,0.71-0.06,1.1h-8.77c0.07,1.08,0.43,1.93,1.1,2.54c0.68,0.6,1.5,0.9,2.46,0.9c0.79,0,1.44-0.18,1.96-0.54
		c0.53-0.37,0.91-0.87,1.12-1.48h1.96c-0.29,1.05-0.88,1.92-1.76,2.58c-0.88,0.65-1.98,0.98-3.28,0.98c-1.04,0-1.98-0.23-2.8-0.7
		c-0.81-0.47-1.45-1.13-1.92-1.98c-0.47-0.87-0.7-1.87-0.7-3c0-1.13,0.23-2.13,0.68-2.98c0.45-0.85,1.09-1.51,1.9-1.96
		c0.83-0.47,1.78-0.7,2.84-0.7c1.04,0,1.96,0.23,2.76,0.68c0.8,0.45,1.41,1.08,1.84,1.88C765.58,636.86,765.8,637.75,765.8,638.75z
		 M744.71,635.19v6.47c0,0.53,0.11,0.91,0.34,1.14c0.23,0.21,0.62,0.32,1.18,0.32h1.34v1.54h-1.64c-1.01,0-1.78-0.23-2.28-0.7
		c-0.51-0.47-0.76-1.23-0.76-2.3v-6.47h-1.42v-1.5h1.42v-2.76h1.82v2.76h2.86v1.5H744.71z M729.9,644.84
		c-0.84,0-1.59-0.14-2.26-0.42c-0.67-0.29-1.19-0.69-1.58-1.2c-0.39-0.52-0.6-1.11-0.64-1.78h1.88c0.05,0.55,0.31,0.99,0.76,1.34
		c0.47,0.35,1.07,0.52,1.82,0.52c0.69,0,1.24-0.15,1.64-0.46c0.4-0.31,0.6-0.69,0.6-1.16c0-0.48-0.21-0.83-0.64-1.06
		c-0.43-0.24-1.09-0.47-1.98-0.7c-0.81-0.21-1.48-0.43-2-0.64c-0.51-0.23-0.95-0.55-1.32-0.98c-0.36-0.44-0.54-1.01-0.54-1.72
		c0-0.56,0.17-1.07,0.5-1.54c0.33-0.47,0.81-0.83,1.42-1.1c0.61-0.28,1.31-0.42,2.1-0.42c1.21,0,2.2,0.31,2.94,0.92
		c0.75,0.61,1.15,1.45,1.2,2.52h-1.82c-0.04-0.57-0.27-1.03-0.7-1.38c-0.41-0.35-0.97-0.52-1.68-0.52c-0.65,0-1.17,0.14-1.56,0.42
		c-0.39,0.28-0.58,0.65-0.58,1.1c0,0.36,0.11,0.66,0.34,0.9c0.24,0.23,0.53,0.41,0.88,0.56c0.36,0.13,0.85,0.29,1.48,0.46
		c0.79,0.21,1.43,0.43,1.92,0.64c0.49,0.2,0.91,0.51,1.26,0.92c0.36,0.41,0.55,0.95,0.56,1.62c0,0.6-0.17,1.14-0.5,1.62
		c-0.33,0.48-0.81,0.86-1.42,1.14C731.39,644.7,730.69,644.84,729.9,644.84z M716.91,633.69v10.97h-1.82v-10.97H716.91z
		 M716.03,631.9c-0.35,0-0.64-0.12-0.88-0.36c-0.24-0.24-0.36-0.53-0.36-0.88c0-0.35,0.12-0.64,0.36-0.88
		c0.24-0.24,0.53-0.36,0.88-0.36c0.33,0,0.61,0.12,0.84,0.36c0.24,0.24,0.36,0.53,0.36,0.88c0,0.35-0.12,0.64-0.36,0.88
		C716.64,631.78,716.36,631.9,716.03,631.9z M705.23,644.66l-2.6-4.08l-2.5,4.08h-1.9l3.54-5.45l-3.54-5.53h2.06l2.6,4.06l2.48-4.06
		h1.9l-3.52,5.43l3.54,5.55H705.23z M689.21,638.37c0-0.69-0.15-1.29-0.46-1.78c-0.31-0.51-0.73-0.89-1.26-1.14
		c-0.52-0.27-1.1-0.4-1.74-0.4c-0.92,0-1.71,0.29-2.36,0.88c-0.64,0.59-1.01,1.4-1.1,2.44H689.21z M691.09,638.75
		c0,0.35-0.02,0.71-0.06,1.1h-8.77c0.07,1.08,0.43,1.93,1.1,2.54c0.68,0.6,1.5,0.9,2.46,0.9c0.79,0,1.44-0.18,1.96-0.54
		c0.53-0.37,0.91-0.87,1.12-1.48h1.96c-0.29,1.05-0.88,1.92-1.76,2.58c-0.88,0.65-1.98,0.98-3.28,0.98c-1.04,0-1.98-0.23-2.8-0.7
		c-0.81-0.47-1.45-1.13-1.92-1.98c-0.47-0.87-0.7-1.87-0.7-3c0-1.13,0.23-2.13,0.68-2.98c0.45-0.85,1.09-1.51,1.9-1.96
		c0.83-0.47,1.78-0.7,2.84-0.7c1.04,0,1.96,0.23,2.76,0.68c0.8,0.45,1.41,1.08,1.84,1.88C690.87,636.86,691.09,637.75,691.09,638.75
		z M655.71,643.24c0.65,0,1.27-0.15,1.84-0.46c0.57-0.31,1.03-0.77,1.38-1.38c0.36-0.61,0.54-1.36,0.54-2.24
		c0-0.88-0.17-1.63-0.52-2.24c-0.35-0.61-0.8-1.07-1.36-1.36c-0.56-0.31-1.17-0.46-1.82-0.46c-0.67,0-1.28,0.15-1.84,0.46
		c-0.55,0.29-0.99,0.75-1.32,1.36c-0.33,0.61-0.5,1.36-0.5,2.24c0,0.89,0.16,1.65,0.48,2.26c0.33,0.61,0.77,1.07,1.32,1.38
		C654.45,643.09,655.05,643.24,655.71,643.24z M655.71,644.84c-1.03,0-1.96-0.23-2.8-0.7c-0.83-0.47-1.48-1.13-1.96-1.98
		c-0.47-0.87-0.7-1.87-0.7-3c0-1.12,0.24-2.11,0.72-2.96c0.49-0.87,1.16-1.53,2-1.98c0.84-0.47,1.78-0.7,2.82-0.7
		c1.04,0,1.98,0.23,2.82,0.7c0.84,0.45,1.5,1.11,1.98,1.96c0.49,0.85,0.74,1.85,0.74,2.98c0,1.13-0.25,2.14-0.76,3
		c-0.49,0.85-1.17,1.51-2.02,1.98C657.7,644.6,656.75,644.84,655.71,644.84z M639.85,635.19v6.47c0,0.53,0.11,0.91,0.34,1.14
		c0.23,0.21,0.62,0.32,1.18,0.32h1.34v1.54h-1.64c-1.01,0-1.78-0.23-2.28-0.7c-0.51-0.47-0.76-1.23-0.76-2.3v-6.47h-1.42v-1.5h1.42
		v-2.76h1.82v2.76h2.86v1.5H639.85z M624.16,633.49c1.33,0,2.42,0.41,3.24,1.22c0.83,0.8,1.24,1.96,1.24,3.48v6.47h-1.8v-6.21
		c0-1.09-0.27-1.93-0.82-2.5c-0.55-0.59-1.29-0.88-2.24-0.88c-0.96,0-1.73,0.3-2.3,0.9c-0.56,0.6-0.84,1.47-0.84,2.62v6.07h-1.82
		v-10.97h1.82v1.56c0.36-0.56,0.85-0.99,1.46-1.3C622.72,633.64,623.41,633.49,624.16,633.49z M609.7,633.69v10.97h-1.82v-10.97
		H609.7z M608.82,631.9c-0.35,0-0.64-0.12-0.88-0.36s-0.36-0.53-0.36-0.88c0-0.35,0.12-0.64,0.36-0.88s0.53-0.36,0.88-0.36
		c0.33,0,0.61,0.12,0.84,0.36c0.24,0.24,0.36,0.53,0.36,0.88c0,0.35-0.12,0.64-0.36,0.88C609.43,631.78,609.15,631.9,608.82,631.9z
		 M585.46,635.19v6.47c0,0.53,0.11,0.91,0.34,1.14c0.23,0.21,0.62,0.32,1.18,0.32h1.34v1.54h-1.64c-1.01,0-1.78-0.23-2.28-0.7
		c-0.51-0.47-0.76-1.23-0.76-2.3v-6.47h-1.42v-1.5h1.42v-2.76h1.82v2.76h2.86v1.5H585.46z M574.13,633.69v10.97h-1.82v-10.97H574.13
		z M573.24,631.9c-0.35,0-0.64-0.12-0.88-0.36s-0.36-0.53-0.36-0.88c0-0.35,0.12-0.64,0.36-0.88s0.53-0.36,0.88-0.36
		c0.33,0,0.61,0.12,0.84,0.36c0.24,0.24,0.36,0.53,0.36,0.88c0,0.35-0.12,0.64-0.36,0.88C573.86,631.78,573.58,631.9,573.24,631.9z
		 M550.67,638.37c0-0.69-0.15-1.29-0.46-1.78c-0.31-0.51-0.73-0.89-1.26-1.14c-0.52-0.27-1.1-0.4-1.74-0.4
		c-0.92,0-1.71,0.29-2.36,0.88c-0.64,0.59-1.01,1.4-1.1,2.44H550.67z M552.55,638.75c0,0.35-0.02,0.71-0.06,1.1h-8.77
		c0.07,1.08,0.43,1.93,1.1,2.54c0.68,0.6,1.5,0.9,2.46,0.9c0.79,0,1.44-0.18,1.96-0.54c0.53-0.37,0.91-0.87,1.12-1.48h1.96
		c-0.29,1.05-0.88,1.92-1.76,2.58c-0.88,0.65-1.98,0.98-3.28,0.98c-1.04,0-1.98-0.23-2.8-0.7c-0.81-0.47-1.45-1.13-1.92-1.98
		c-0.47-0.87-0.7-1.87-0.7-3c0-1.13,0.23-2.13,0.68-2.98c0.45-0.85,1.09-1.51,1.9-1.96c0.83-0.47,1.78-0.7,2.84-0.7
		c1.04,0,1.96,0.23,2.76,0.68c0.8,0.45,1.41,1.08,1.84,1.88C552.33,636.86,552.55,637.75,552.55,638.75z M529.39,642.98l3.4-9.29
		h1.94l-4.3,10.97h-2.12l-4.3-10.97h1.96L529.39,642.98z M515.02,638.37c0-0.69-0.15-1.29-0.46-1.78c-0.31-0.51-0.73-0.89-1.26-1.14
		c-0.52-0.27-1.1-0.4-1.74-0.4c-0.92,0-1.71,0.29-2.36,0.88c-0.64,0.59-1.01,1.4-1.1,2.44H515.02z M516.9,638.75
		c0,0.35-0.02,0.71-0.06,1.1h-8.77c0.07,1.08,0.43,1.93,1.1,2.54c0.68,0.6,1.5,0.9,2.46,0.9c0.79,0,1.44-0.18,1.96-0.54
		c0.53-0.37,0.91-0.87,1.12-1.48h1.96c-0.29,1.05-0.88,1.92-1.76,2.58c-0.88,0.65-1.98,0.98-3.28,0.98c-1.04,0-1.98-0.23-2.8-0.7
		c-0.81-0.47-1.45-1.13-1.92-1.98c-0.47-0.87-0.7-1.87-0.7-3c0-1.13,0.23-2.13,0.68-2.98c0.45-0.85,1.09-1.51,1.9-1.96
		c0.83-0.47,1.78-0.7,2.84-0.7c1.04,0,1.96,0.23,2.76,0.68s1.41,1.08,1.84,1.88C516.68,636.86,516.9,637.75,516.9,638.75z
		 M497.78,633.69v10.97h-1.82v-10.97H497.78z M496.9,631.9c-0.35,0-0.64-0.12-0.88-0.36s-0.36-0.53-0.36-0.88
		c0-0.35,0.12-0.64,0.36-0.88s0.53-0.36,0.88-0.36c0.33,0,0.61,0.12,0.84,0.36c0.24,0.24,0.36,0.53,0.36,0.88
		c0,0.35-0.12,0.64-0.36,0.88C497.51,631.78,497.23,631.9,496.9,631.9z M486.84,629.84v14.82h-1.82v-14.82H486.84z M474.73,638.37
		c0-0.69-0.15-1.29-0.46-1.78c-0.31-0.51-0.73-0.89-1.26-1.14c-0.52-0.27-1.1-0.4-1.74-0.4c-0.92,0-1.71,0.29-2.36,0.88
		c-0.64,0.59-1.01,1.4-1.1,2.44H474.73z M476.61,638.75c0,0.35-0.02,0.71-0.06,1.1h-8.77c0.07,1.08,0.43,1.93,1.1,2.54
		c0.68,0.6,1.5,0.9,2.46,0.9c0.79,0,1.44-0.18,1.96-0.54c0.53-0.37,0.91-0.87,1.12-1.48h1.96c-0.29,1.05-0.88,1.92-1.76,2.58
		c-0.88,0.65-1.98,0.98-3.28,0.98c-1.04,0-1.98-0.23-2.8-0.7c-0.81-0.47-1.45-1.13-1.92-1.98c-0.47-0.87-0.7-1.87-0.7-3
		c0-1.13,0.23-2.13,0.68-2.98c0.45-0.85,1.09-1.51,1.9-1.96c0.83-0.47,1.78-0.7,2.84-0.7c1.04,0,1.96,0.23,2.76,0.68
		c0.8,0.45,1.41,1.08,1.84,1.88C476.39,636.86,476.61,637.75,476.61,638.75z M456.34,639.13c0-0.83-0.17-1.55-0.5-2.16
		c-0.33-0.61-0.79-1.08-1.36-1.4c-0.56-0.32-1.18-0.48-1.86-0.48c-0.67,0-1.29,0.17-1.86,0.5c-0.56,0.32-1.01,0.79-1.36,1.42
		c-0.33,0.61-0.5,1.33-0.5,2.14c0,0.83,0.17,1.55,0.5,2.18c0.35,0.61,0.8,1.09,1.36,1.42c0.57,0.32,1.19,0.48,1.86,0.48
		c0.68,0,1.3-0.16,1.86-0.48c0.57-0.33,1.03-0.81,1.36-1.42C456.17,640.71,456.34,639.97,456.34,639.13z M448.89,635.73
		c0.37-0.65,0.92-1.19,1.64-1.6c0.72-0.41,1.54-0.62,2.46-0.62c0.99,0,1.88,0.23,2.66,0.7c0.79,0.47,1.41,1.13,1.86,1.98
		c0.45,0.84,0.68,1.82,0.68,2.94c0,1.11-0.23,2.1-0.68,2.96c-0.45,0.87-1.08,1.54-1.88,2.02c-0.79,0.48-1.67,0.72-2.64,0.72
		c-0.95,0-1.78-0.21-2.5-0.62c-0.71-0.41-1.24-0.94-1.6-1.58v2.02h-1.82v-14.82h1.82V635.73z"/>
</g>
<g id="r" class="st2">
	<path class="st3" d="M475.76,553.11c-1.85,2.55-3.67,5.08-5.31,9.38c-0.11,0.29-0.73,1.5-0.66,3.06c0.05,1.18,0.45,1.61,0.65,1.78
		c0.36,0.3,0.86,0.45,1.51,0.45c1.32,0,2.95-0.51,4.88-1.54c2.53-1.26,5.12-3.03,7.77-5.32c2.77-2.4,5.3-4.86,7.59-7.38
		c1.32-1.26,2.53-2.46,3.61-3.6c1.08-1.26,2.11-2.52,3.07-3.78c0.36-0.34,0.66-0.51,0.9-0.51c0.72,0,1.08,0.51,1.08,1.54
		c0,0.57-0.24,1.09-0.72,1.54c-2.53,2.86-5.12,5.89-7.77,9.1c-2.65,3.09-5.48,5.89-8.49,8.41c-1.81,1.37-4.15,2.92-7.04,4.63
		c-2.89,1.72-5.72,2.57-8.49,2.57c-2.29,0-4.21-0.74-5.78-2.23c-2.2-2.1-2.29-4.95-2.35-6.35c-0.03-0.81,0-2,0.36-3.43
		c1.31-5.17,3.87-9.21,5.2-11.28c1.13-1.75,1.96-3.66,3.08-5.42c0.29-0.46,2.95-4.58,5.42-8.58c2.17-3.51,6.95-9,4.41-10.33
		c-2.07-1.08-4.29,1.91-9.75,4.39c-2.81,1.28-6.15-0.08-6.75-0.54c0,0-4.15,6.45-5.06,7.72c-0.91,1.28-5.79,7.67-5.79,7.67
		s-1.35,3.01-11.51,13.55c-0.04,0.04-0.14,0.15-0.32,0.24c-0.33,0.18-0.68,0.18-0.81,0.18c-0.6,0-1.08-0.29-1.44-0.86
		s-0.28-1.07,0.18-1.54c5.11-5.29,12.43-15.38,12.43-15.38s3.59-4.51,5.71-7.54l3.72-6.27c-0.48-0.34-1.26-1.09-2.35-2.23
		c-0.96-1.14-1.93-2.4-2.89-3.78c-0.84-1.49-1.26-2.75-1.26-3.78c0-0.92,0.3-1.6,0.9-2.06c0.72-0.57,1.93-0.86,3.61-0.86
		c4.09,0,6.08,4.18,5.96,12.53c1.69,1.26,7.13-2.96,8.79-4.34c4.4-3.64,8.89-4.83,11.04-4.15c1.93,0.57,3.8,1.52,4.82,2.97
		c1.24,1.69,1.59,3.17,1.59,5.46c0,1.95-4.18,11.87-9.51,19.12c-0.39,0.53-0.92,1.78-2.04,3.66"/>
</g>
<g id="Layer_4">
</g>
<g id="Layer_3">
	<g>
		<rect x="671.71" y="432.71" class="st1" width="24.49" height="23.06"/>
		<path class="st1" d="M673.76,481.14l0.26,21.27v103.04h21.93V502.92h26.26v63.55c0,11.96,3.16,21.44,9.48,28.45
			c6.49,6.83,16.23,10.25,29.21,10.25c9.57,0,17.68-1.37,24.35-4.1v-19.73c-5.13,1.71-9.99,2.56-14.61,2.56
			c-7.35,0-16.56,0.17-19.8-2.56c-3.25-2.9-4.96-9.4-4.96-16.4v-62.02h32.2v-21.78h-32.2v-48.43h-23.67v48.43h-26.26"/>
	</g>
	<path class="st1" d="M820.79,593.2c0,3.27-1.11,6.14-3.34,8.62c-2.18,2.43-4.88,3.64-8.1,3.64s-5.92-1.26-8.1-3.79
		c-2.08-2.38-3.12-5.2-3.12-8.47c0-3.32,1.06-6.14,3.19-8.47c2.13-2.38,4.8-3.57,8.02-3.57c3.27,0,5.99,1.19,8.17,3.57
		C819.7,587.11,820.79,589.93,820.79,593.2z"/>
	<path class="st1" d="M652.09,490.19c-4.51-6.07-11.63-9.11-21.36-9.11c-8.06,0-16.49,2.79-25.27,8.38
		c-8.77,5.35-16.96,12.51-24.55,21.5c-7.36,8.99-13.41,18.95-18.15,29.88c-1.7,3.96-3.12,7.8-4.26,11.54
		c-0.29,0.36-0.59,0.73-0.89,1.09c-2.14,2.35-4.39,4.82-6.76,7.41c-3.09,3.06-5.93,5.88-8.54,8.47c-2.38,2.35-4.87,4.7-7.48,7.05
		c-2.61,2.12-6.52,4.94-11.74,8.47c-5.22,3.53-10.8,6.71-16.73,9.53c-5.93,2.59-11.51,3.88-16.73,3.88c-3.32,0-6.17-0.94-8.54-2.82
		c-2.13-2.12-3.2-5.53-3.2-10.24v-3.17c0.24-1.18,0.47-2.35,0.71-3.53c0.48-2.59,1.07-5.29,1.78-8.11c0.69-2.98,1.5-5.96,2.42-8.94
		c0.05-0.04,0.07-0.06,0.07-0.06l-0.04-0.06c0.02-0.04,0.03-0.08,0.04-0.12c14.71-3.29,27.76-8.23,39.15-14.82
		c11.63-6.82,22.18-16.23,31.68-28.22c2.61-3.3,4.5-6.47,5.69-9.53s1.78-5.76,1.78-8.11c0-5.88-2.37-10.59-7.12-14.12
		c-4.51-3.52-9.96-5.29-16.37-5.29c-6.88,0-14.47,2.59-22.78,7.76c-8.06,4.94-16.01,11.53-23.84,19.76
		c-7.6,8.23-14.12,17.29-19.58,27.17c-2.61,4.47-5.34,10.58-8.18,18.35c-1.77,5.27-2.94,10.37-3.52,15.32
		c-6.68,4.63-14.75,9.83-23.63,14.71c-25.24,13.88-29.64,9.17-26.24-1.56c3.41-10.73,19.62-34.68,19.62-34.68
		s15.82-28.64,17.92-34.91c2.1-6.27,6.87-18.45-4.31-23.17c-9.84-4.15-14.68,3.18-27.31,7.83c-11.67,4.29-16.51,0.27-16.51,0.27
		s-5.51-22.75-19.91-15.47c-13.88,9.98,0.81,24.46,8.59,27.23c-2.42,3.39-10.93,15.67-10.93,15.67l-24.04,26.28v0.01l0,0
		c-2.51,3.23-37.08,42.86-64.5,46.36c-4.47,0.57-7.47-0.61-9.37-3.2c-1.9-2.83-2.85-6.24-2.85-10.24c0-5.18,0.95-10.71,2.85-16.6
		c1.9-6.12,4.03-11.77,6.41-16.95c2.37-5.18,4.03-8.71,4.98-10.59c4.51-8.24,10.2-16.01,17.08-23.31
		c6.88-7.53,13.52-13.54,19.93-18.01c6.64-4.71,11.74-6.71,15.3-6c0.24,1.18-0.24,3.53-1.42,7.06c-1.19,3.53-2.49,7.06-3.91,10.59
		c-1.42,3.53-2.37,6-2.85,7.42c-1.19,3.06-1.78,5.3-1.78,6.71c0,1.65,0.59,2.47,1.78,2.47c1.19,0,2.97-0.94,5.34-2.83
		s5.22-5.06,8.54-9.54c2.61-3.3,3.91-7.3,3.91-12.01c0-5.42-1.9-10.36-5.69-14.83c-3.8-4.71-9.13-7.06-16.02-7.06
		c-6.88,0-14.35,2.59-22.42,7.77c-7.83,4.94-15.3,11.54-22.42,19.78s-13.17,17.3-18.15,27.19c-2.37,4.47-4.75,10.59-7.12,18.36
		c-2.14,7.53-3.2,14.83-3.2,21.9c0,10.12,2.85,17.54,8.54,22.25s13.17,7.06,22.42,7.06c12.81,0,24.08-3.65,33.81-10.95
		c9.97-7.53,18.86-15.66,26.69-24.37c1.38-1.62,2.73-3.18,4.1-4.79v0v0.02l28.92-33.41c0,0,8.73-10.66,14.22-19.74
		c4.47,0.68,12.61-0.12,16.56-1.44c7.03-2.33,21.56-11.19,18.66-0.08c-2.89,11.1-24.42,37.58-33.07,49.73
		c-5.31,7.46-15.49,23.96-5.73,36.56c9.75,12.6,25.21,9.14,41.19,0.97c6.63-3.39,16.58-10.57,25.78-17.67
		c0.65,7.34,3.2,13.22,7.66,17.64c5.22,4.94,12.22,7.41,21,7.41c11.15,0,21.24-2.71,30.25-8.12c9.25-5.41,16.49-10.82,21.71-16.23
		c4.51-4.7,8.9-9.53,13.17-14.46c0.84-1.02,1.68-2.04,2.52-3.06c-0.62,3.75-0.93,7.38-0.93,10.89c0,8.99,2.13,16.4,6.4,22.23
		c4.51,5.83,11.15,8.75,19.93,8.75c6.88,0,13.88-1.95,21-5.83c7.36-4.13,14.24-9.36,20.64-15.67c6.41-6.32,12.1-12.88,17.09-19.68
		c4.98-6.8,8.78-13.12,11.39-18.95c4.98-11.41,7.47-22.1,7.47-32.06C658.85,503.92,656.6,496.26,652.09,490.19z M506,521.72
		c8.55-10.82,18.75-19.41,30.61-25.76c3.8-1.88,7-2.82,9.61-2.82c3.8,0,5.7,1.64,5.7,4.94c0,2.11-0.83,4.47-2.5,7.05
		c-4.98,8-11.38,15.53-19.21,22.58c-7.6,6.83-15.54,12.71-23.85,17.65c-8.07,4.94-15.18,8.7-21.35,11.29
		C490.46,544.18,497.46,532.54,506,521.72z M645.68,528.82c-1.9,7.04-4.86,14.45-8.9,22.22c-1.66,3.65-4.27,8.14-7.83,13.48
		c-3.32,5.11-7.23,10.21-11.74,15.31c-4.51,5.1-9.25,9.47-14.24,13.12c-4.98,3.4-9.96,5.1-14.94,5.1h-2.5
		c-0.71-0.24-1.42-0.49-2.13-0.73c-5.46-1.46-8.19-6.56-8.19-15.3c0-10.94,4.27-25.15,12.82-42.64c4.03-8.74,8.77-16.64,14.23-23.68
		c5.46-7.05,11.03-12.63,16.73-16.76c5.93-4.38,11.51-6.56,16.73-6.56c8.54,0,12.81,5.83,12.81,17.49
		C648.53,515.21,647.58,521.53,645.68,528.82z"/>
</g>
</svg>
